<?xml version="1.0" encoding="UTF-8" standalone="no"?>
<!-- Created with Inkscape (http://www.inkscape.org/) -->

<svg
   xmlns:dc="http://purl.org/dc/elements/1.1/"
   xmlns:cc="http://creativecommons.org/ns#"
   xmlns:rdf="http://www.w3.org/1999/02/22-rdf-syntax-ns#"
   xmlns:svg="http://www.w3.org/2000/svg"
   xmlns="http://www.w3.org/2000/svg"
   xmlns:xlink="http://www.w3.org/1999/xlink"
   xmlns:sodipodi="http://sodipodi.sourceforge.net/DTD/sodipodi-0.dtd"
   xmlns:inkscape="http://www.inkscape.org/namespaces/inkscape"
   width="282.22202mm"
   height="282.22214mm"
   viewBox="0 0 999.99926 999.99969"
   id="svg3391"
   version="1.1"
   inkscape:version="0.91 r13725"
   sodipodi:docname="Amazon Appstore.svg">
  <defs
     id="defs3393">
    <linearGradient
       inkscape:collect="always"
       id="linearGradient4309">
      <stop
         style="stop-color:#f89730;stop-opacity:1"
         offset="0"
         id="stop4311" />
      <stop
         style="stop-color:#b25a10;stop-opacity:1"
         offset="1"
         id="stop4313" />
    </linearGradient>
    <linearGradient
       inkscape:collect="always"
       xlink:href="#linearGradient4309"
       id="linearGradient4315"
       x1="272.48395"
       y1="696.6615"
       x2="273.94601"
       y2="911.53253"
       gradientUnits="userSpaceOnUse"
       gradientTransform="matrix(1.9542332,0,0,1.9598481,-15.905313,-767.09368)" />
  </defs>
  <sodipodi:namedview
     id="base"
     pagecolor="#ffffff"
     bordercolor="#666666"
     borderopacity="1.0"
     inkscape:pageopacity="0.0"
     inkscape:pageshadow="2"
     inkscape:zoom="0.35"
     inkscape:cx="276.30003"
     inkscape:cy="628.96286"
     inkscape:document-units="px"
     inkscape:current-layer="layer1"
     showgrid="false"
     inkscape:window-width="1366"
     inkscape:window-height="705"
     inkscape:window-x="-8"
     inkscape:window-y="-8"
     inkscape:window-maximized="1"
     showguides="false"
     fit-margin-top="0"
     fit-margin-left="0"
     fit-margin-right="0"
     fit-margin-bottom="0">
    <sodipodi:guide
       position="-51.669158,521.86395"
       orientation="1,0"
       id="guide4317" />
  </sodipodi:namedview>
  <metadata
     id="metadata3396">
    <rdf:RDF>
      <cc:Work
         rdf:about="">
        <dc:format>image/svg+xml</dc:format>
        <dc:type
           rdf:resource="http://purl.org/dc/dcmitype/StillImage" />
        <dc:title></dc:title>
      </cc:Work>
    </rdf:RDF>
  </metadata>
  <g
     inkscape:label="Layer 1"
     inkscape:groupmode="layer"
     id="layer1"
     transform="translate(-16.669161,-75.655082)">
    <path
       style="fill:url(#linearGradient4315);fill-opacity:1;fill-rule:evenodd;stroke:none;stroke-width:1px;stroke-linecap:butt;stroke-linejoin:miter;stroke-opacity:1"
       d="m 17.652687,401.87293 0,544.32868 c 4.583426,85.90419 59.2239,117.42329 114.498123,128.46559 l 751.85009,0 c 70.85991,0.8216 126.0835,-49.8459 131.6879,-122.03599 l -10e-5,-548.7678 c -19.19704,2.05675 -38.38857,4.10133 -57.49721,5.93693 -24.77877,2.38029 -49.48571,4.57292 -74.1272,6.57621 -24.64149,2.00333 -49.21711,3.81498 -73.73406,5.43553 -24.51698,1.62056 -48.97393,3.05126 -73.37912,4.28334 -24.40518,1.23207 -48.75993,2.26654 -73.0661,3.10436 -24.3062,0.83784 -48.56375,1.47607 -72.78368,1.91391 -24.21994,0.43788 -48.40063,0.67603 -72.54705,0.70815 -24.14642,0.0323 -48.25905,-0.14128 -72.34473,-0.52056 -24.08566,-0.37935 -48.14291,-0.96425 -72.18062,-1.76081 -24.03766,-0.79656 -48.05599,-1.80448 -72.05845,-3.02401 -24.00246,-1.21949 -47.99071,-2.65041 -71.97068,-4.29862 -23.97999,-1.64825 -47.95082,-3.51361 -71.92108,-5.59629 -23.97026,-2.0827 -47.94012,-4.38251 -71.913424,-6.90541 -22.831043,-2.40269 -45.667515,-5.03619 -68.512609,-7.84321 z"
       id="path3415"
       inkscape:connector-curvature="0"
       sodipodi:nodetypes="ccccccsssssssssssssc" />
    <path
       style="fill:#ffffff;fill-rule:evenodd;stroke:none;stroke-width:1px;stroke-linecap:butt;stroke-linejoin:miter;stroke-opacity:1"
       d="m 17.652687,401.87293 c 22.845094,2.80702 45.681566,5.44052 68.512609,7.84321 23.973304,2.5229 47.943164,4.82271 71.913424,6.90541 23.97026,2.08268 47.94109,3.94804 71.92108,5.59629 23.97997,1.64821 47.96822,3.07913 71.97068,4.29862 24.00246,1.21953 48.02079,2.22745 72.05845,3.02401 24.03771,0.79656 48.09496,1.38146 72.18062,1.76081 24.08568,0.37932 48.19831,0.55272 72.34473,0.52056 24.14642,-0.0323 48.32711,-0.27027 72.54705,-0.70815 24.21993,-0.43784 48.47748,-1.07607 72.78368,-1.91391 24.30617,-0.83782 48.66092,-1.87229 73.0661,-3.10436 24.40519,-1.23208 48.86214,-2.66278 73.37912,-4.28334 24.51695,-1.62055 49.09257,-3.4322 73.73406,-5.43553 24.64149,-2.00329 49.34843,-4.19592 74.1272,-6.57621 19.10864,-1.8356 38.30017,-3.88018 57.49721,-5.93693 L 1014.5589,179.8206 C 1012.4428,126.23789 952.98854,72.584888 886.75518,76.875095 l -749.56231,0 C 76.103004,75.539598 16.942329,126.43009 17.652687,210.47774 l 0,191.39519 z"
       id="path3410"
       inkscape:connector-curvature="0" />
    <ellipse
       id="path3417"
       cx="236.05113"
       cy="718.07129"
       rx="176.57878"
       ry="176.38632"
       style="fill:#000060;fill-opacity:1;stroke:none;stroke-opacity:1" />
    <rect
       style="fill:#ffffff;stroke:none"
       id="rect3419"
       width="36.29287"
       height="40.596848"
       x="205.81543"
       y="570.38281" />
    <rect
       y="531.28595"
       x="-354.14941"
       height="38.266117"
       width="21.223948"
       id="rect3421"
       style="fill:#ffffff;stroke:none;stroke-width:0.74248934"
       transform="matrix(0.70476379,-0.70944203,0.7425596,0.66978,0,0)" />
    <rect
       y="647.79974"
       x="128.98996"
       height="22.252634"
       width="34.053848"
       id="rect3423"
       style="fill:#ffffff;stroke:none;stroke-width:0.71716154" />
    <rect
       transform="matrix(-0.70476333,-0.7094425,-0.74255917,0.66978047,0,0)"
       style="fill:#ffffff;stroke:none;stroke-width:0.74248934"
       id="rect3425"
       width="21.224037"
       height="38.266266"
       x="-655.28802"
       y="209.17928" />
    <rect
       style="fill:#ffffff;stroke:none;stroke-width:0.71716154"
       id="rect3427"
       width="34.053974"
       height="22.252741"
       x="-321.72708"
       y="647.79974"
       transform="scale(-1,1)" />
    <path
       style="fill:#ffffff;fill-rule:evenodd;stroke:none;stroke-width:1px;stroke-linecap:butt;stroke-linejoin:miter;stroke-opacity:1"
       d="m 201.73632,806.41134 -6.5e-4,-154.9151 42.44318,0 0,117.79487 15.29905,0 0,-59.88732 27.14349,0 0.49353,61.86706 14.80554,0 0,-48.00883 28.62403,0 0,58.89743 10.36389,0 0,-40.58478 22.20832,0 0,38.11011 c 1.78157,70.56026 -51.37961,86.97304 -68.10549,95.5227 -58.21792,20.25786 -106.3479,-7.92944 -125.8471,-37.12023 L 112.90306,742.0696 c -4.38103,-19.57167 25.12404,-22.48262 31.58515,-13.85822 l 51.81939,78.69489 c 2.2964,2.76445 4.43064,4.55304 5.42872,-0.49493 z"
       id="path3429"
       inkscape:connector-curvature="0"
       sodipodi:nodetypes="cccccccccccccccccccccc" />
    <path
       style="fill:#ffffff;fill-rule:evenodd;stroke:none;stroke-width:1px;stroke-linecap:butt;stroke-linejoin:miter;stroke-opacity:1"
       d="m 514.52749,628.12815 c -17.32459,0.29824 -34.35141,1.30363 -47.10763,12.5974 l 0.69464,25.89908 c 0.91918,1.06134 1.99943,1.96391 3.83978,2.1015 14.13058,-8.24368 28.16521,-13.18909 39.78311,-12.60124 16.93942,0.50197 19.33481,6.82983 20.93927,14.69887 l 0.69849,16.09983 c -31.61661,1.33588 -70.36455,-2.12787 -80.26471,41.29845 -1.556,19.6324 -4.57337,58.1258 52.69555,54.59249 10.7095,0.16733 21.14195,-1.82235 30.01195,-13.6462 l 1.7443,12.59737 26.1722,0.35217 0,-104.48823 c 2.00872,-28.85798 -20.39338,-48.17139 -49.20695,-49.50149 z m 5.35507,83.05242 c 4.34341,-0.0792 8.47436,0.27277 12.7941,0.24113 l 0.34735,22.7488 c -0.96792,18.95553 -28.47969,34.16005 -43.61905,16.09981 -12.78015,-24.71593 8.58428,-35.48702 16.40103,-36.74713 5.1773,-1.75169 9.73314,-2.2635 14.07657,-2.34261 z"
       id="path4235"
       inkscape:connector-curvature="0" />
    <path
       style="fill:#ffffff;fill-opacity:1;stroke:none;stroke-opacity:1"
       d="m 659.00322,627.07935 a 56.533123,79.443829 0 0 0 -33.50056,15.56394 l 0,-12.06532 -32.1074,0 0,213.48181 32.1074,0 0,-73.65892 a 56.533123,79.443829 0 0 0 33.50056,15.56397 56.533123,79.443829 0 0 0 56.53152,-79.44277 56.533123,79.443829 0 0 0 -56.53152,-79.44271 z m -5.93138,28.96134 a 27.306456,50.48314 0 0 1 27.30579,50.48137 27.306456,50.48314 0 0 1 -27.30579,50.48143 27.306456,50.48314 0 0 1 -27.30963,-50.48143 27.306456,50.48314 0 0 1 27.30963,-50.48137 z"
       id="rect4240"
       inkscape:connector-curvature="0" />
    <path
       id="path4248"
       d="m 800.6847,627.07935 a 56.533123,79.443829 0 0 0 -33.50056,15.56394 l 0,-12.06532 -32.1074,0 0,213.48181 32.1074,0 0,-73.65892 a 56.533123,79.443829 0 0 0 33.50056,15.56397 56.533123,79.443829 0 0 0 56.5315,-79.44277 56.533123,79.443829 0 0 0 -56.5315,-79.44271 z m -5.93138,28.96134 a 27.306456,50.48314 0 0 1 27.30579,50.48137 27.306456,50.48314 0 0 1 -27.30579,50.48143 27.306456,50.48314 0 0 1 -27.30964,-50.48143 27.306456,50.48314 0 0 1 27.30964,-50.48137 z"
       style="fill:#ffffff;fill-opacity:1;stroke:none;stroke-opacity:1"
       inkscape:connector-curvature="0" />
    <path
       style="fill:#ffffff;fill-rule:evenodd;stroke:none;stroke-width:1px;stroke-linecap:butt;stroke-linejoin:miter;stroke-opacity:1"
       d="m 953.3642,659.91017 1.48054,-24.74682 c -30.40228,-12.03153 -57.63178,-11.07153 -78.96286,13.85822 -14.33927,24.37551 -5.08354,53.72553 19.74071,62.362 15.18,11.82387 48.5878,18.90843 31.58515,39.09996 -17.18326,12.57044 -35.84389,2.91652 -54.28698,-3.46457 l -3.94813,27.71646 c 23.26982,7.61496 45.61866,18.3088 76.49528,0.49493 14.00195,-7.45637 26.25134,-39.79751 8.38981,-65.82656 -8.55405,-12.12613 -25.8129,-16.97746 -41.94903,-22.76706 -13.06132,-10.73181 -11.36807,-19.61398 -3.45463,-27.71642 13.59413,-5.86471 30.04187,-2.09005 44.91014,0.98986 z"
       id="path4250"
       inkscape:connector-curvature="0"
       sodipodi:nodetypes="cccccccccccc" />
    <path
       inkscape:connector-curvature="0"
       d="m 598.07523,335.93553 c -40.33062,31.05954 -98.78739,47.63092 -149.11756,47.63092 -70.57102,0 -134.10303,-27.27177 -182.16748,-72.63004 -3.7763,-3.56685 -0.39275,-8.42775 4.13878,-5.65011 51.87091,31.53304 116.00721,50.50335 182.25817,50.50335 44.68086,0 93.83284,-9.65876 139.02729,-29.70228 6.8275,-3.0302 12.53724,4.67157 5.8608,9.84816"
       id="path8"
       style="fill:#000000;fill-opacity:1;fill-rule:evenodd;stroke:none" />
    <path
       inkscape:connector-curvature="0"
       d="m 614.84188,315.89205 c -5.13574,-6.88111 -34.07714,-3.25118 -47.0675,-1.64136 -3.95756,0.50503 -4.56174,-3.09336 -0.99694,-5.68166 23.0504,-16.95015 60.87357,-12.05765 65.28425,-6.37605 4.41068,5.71322 -1.14797,45.32679 -22.8087,64.23388 -3.32315,2.90399 -6.49519,1.3573 -5.01489,-2.49357 4.86385,-12.68894 15.76974,-41.12864 10.60378,-48.04124"
       id="path10"
       style="fill:#000000;fill-opacity:1;fill-rule:evenodd;stroke:none" />
    <path
       inkscape:connector-curvature="0"
       d="m 568.68071,188.90767 0,-16.47657 c 0,-2.49369 1.81261,-4.16657 3.98773,-4.16657 l 70.6012,0 c 2.2658,0 4.07843,1.70444 4.07843,4.16657 l 0,14.10937 c -0.0293,2.3672 -1.93345,5.46068 -5.31705,10.35315 l -36.58453,54.57513 c 13.59459,-0.3472 27.94446,1.76763 40.27019,9.02745 2.77934,1.64134 3.53462,4.04024 3.74605,6.40764 l 0,17.58146 c 0,2.39892 -2.53765,5.20814 -5.19611,3.75618 -21.72117,-11.89986 -50.57189,-13.19402 -74.58899,0.12625 -2.44704,1.38882 -5.01487,-1.38885 -5.01487,-3.78775 l 0,-16.69766 c 0,-2.683 0.0293,-7.25989 2.59803,-11.33169 l 42.38495,-63.50784 -36.88666,0 c -2.26576,0 -4.07837,-1.67285 -4.07837,-4.13498"
       id="path12"
       style="fill:#000000;fill-rule:evenodd;stroke:none" />
    <path
       inkscape:connector-curvature="0"
       d="m 311.13874,291.71356 -21.47946,0 c -2.05426,-0.15771 -3.68565,-1.76758 -3.83667,-3.81928 l 0,-115.17916 c 0,-2.30424 1.84283,-4.13499 4.13881,-4.13499 l 20.02935,0 c 2.08453,0.0942 3.74606,1.76779 3.89714,3.85097 l 0,15.05635 0.39271,0 c 5.22635,-14.55128 15.04467,-21.33766 28.27673,-21.33766 13.44357,0 21.84198,6.78638 27.88404,21.33766 5.19614,-14.55128 17.00831,-21.33766 29.66641,-21.33766 9.00263,0 18.85117,3.88235 24.863,12.5942 6.79726,9.69039 5.40758,23.7682 5.40758,36.10999 l -0.0293,72.69308 c 0,2.30421 -1.84283,4.1665 -4.13879,4.1665 l -21.44924,0 c -2.1449,-0.15771 -3.86689,-1.95699 -3.86689,-4.1665 l 0,-61.04588 c 0,-4.86084 0.42291,-16.98176 -0.60422,-21.59023 -1.60112,-7.73331 -6.40455,-9.91124 -12.62788,-9.91124 -5.19616,0 -10.63401,3.62993 -12.83931,9.43777 -2.20536,5.80803 -1.99389,15.5298 -1.99389,22.0637 l 0,61.04588 c 0,2.30421 -1.84283,4.1665 -4.13878,4.1665 l -21.44926,0 c -2.1751,-0.15771 -3.86689,-1.95699 -3.86689,-4.1665 l -0.0293,-61.04588 c 0,-12.84679 2.02406,-31.75389 -13.23208,-31.75389 -15.43742,0 -14.83322,18.43363 -14.83322,31.75389 l 0,61.04588 c 0,2.30421 -1.84283,4.1665 -4.13875,4.1665"
       id="path14"
       style="fill:#000000;fill-rule:evenodd;stroke:none" />
    <path
       inkscape:connector-curvature="0"
       d="m 708.13094,166.14979 c 31.87179,0 49.1218,28.5975 49.1218,64.95978 0,35.13139 -19.06266,63.00291 -49.1218,63.00291 -31.29773,0 -48.33631,-28.5975 -48.33631,-64.23392 0,-35.85739 17.25001,-63.72877 48.33631,-63.72877 m 0.18135,23.51556 c -15.83011,0 -16.82708,22.53703 -16.82708,36.58332 0,14.07779 -0.21133,44.12724 16.64583,44.12724 16.64582,0 17.43128,-24.24155 17.43128,-39.01382 0,-9.72175 -0.39271,-21.33762 -3.20229,-30.55454 -2.41681,-8.01733 -7.22022,-11.1422 -14.04774,-11.1422"
       id="path16"
       style="fill:#000000;fill-rule:evenodd;stroke:none" />
    <path
       inkscape:connector-curvature="0"
       d="m 798.58032,291.71356 -21.38882,0 c -2.14498,-0.15771 -3.86692,-1.95699 -3.86692,-4.1665 l -0.0292,-115.21069 c 0.18135,-2.11476 1.96364,-3.75624 4.13876,-3.75624 l 19.90856,0 c 1.87301,0.0942 3.41371,1.42043 3.83668,3.21961 l 0,17.61298 0.39273,0 c 6.01181,-15.75067 14.44046,-23.26293 29.27364,-23.26293 9.6371,0 19.03248,3.62991 25.07452,13.57274 5.61908,9.21672 5.61908,24.71495 5.61908,35.85735 l 0,72.50377 c -0.24163,2.02014 -2.0241,3.62991 -4.13878,3.62991 l -21.5399,0 c -1.96368,-0.15771 -3.59502,-1.6729 -3.80645,-3.62991 l 0,-62.56098 c 0,-12.59419 1.38964,-31.02801 -13.44358,-31.02801 -5.22633,0 -10.02978,3.66149 -12.41638,9.21692 -3.02102,7.0388 -3.41377,14.04621 -3.41377,21.81109 l 0,62.02439 c -0.0293,2.30421 -1.90322,4.1665 -4.19918,4.1665"
       id="path18"
       style="fill:#000000;fill-rule:evenodd;stroke:none" />
    <path
       inkscape:connector-curvature="0"
       d="m 512.3991,236.69654 c 0,8.74336 0.21134,16.03479 -4.01797,23.79966 -3.41374,6.31296 -8.85156,10.19538 -14.86339,10.19538 -8.2474,0 -13.08105,-6.56546 -13.08105,-16.25575 0,-19.12813 16.40416,-22.60021 31.96241,-22.60021 l 0,4.86092 m 21.66071,54.7014 c -1.41988,1.32566 -3.47418,1.42039 -5.07532,0.5366 -7.12962,-6.18665 -8.42865,-9.05904 -12.32576,-14.96161 -11.78196,12.5627 -20.15023,16.31889 -35.40634,16.31889 -18.09595,0 -32.14364,-11.64733 -32.14364,-34.97352 0,-18.21278 9.42556,-30.61767 22.89931,-36.67796 11.66113,-5.36614 27.94444,-6.31307 40.39104,-7.79648 l 0,-2.90401 c 0,-5.33438 0.39271,-11.64727 -2.6283,-16.25572 -2.59807,-4.13498 -7.61298,-5.83942 -12.05386,-5.83942 -8.18697,0 -15.46762,4.38741 -17.25001,13.47801 -0.36247,2.02022 -1.78245,4.00868 -3.74608,4.1034 l -20.81483,-2.3358 c -1.75221,-0.41032 -3.71584,-1.89391 -3.20227,-4.70299 4.77321,-26.38802 27.61213,-34.34238 48.03421,-34.34238 10.45276,0 24.10775,2.90401 32.3551,11.17397 10.45276,10.19524 9.45578,23.79956 9.45578,38.60348 l 0,34.97343 c 0,10.51102 4.16901,15.11939 8.09634,20.80105 1.35949,2.02014 1.66162,4.45058 -0.0906,5.96571 -4.38049,3.81931 -12.17473,10.92134 -16.46458,14.89846 l -0.0292,-0.0631"
       id="path28"
       style="fill:#000000;fill-rule:evenodd;stroke:none" />
    <path
       inkscape:connector-curvature="0"
       d="m 230.80983,236.69654 c 0,8.74336 0.21135,16.03479 -4.01791,23.79966 -3.41381,6.31296 -8.8214,10.19538 -14.86346,10.19538 -8.2474,0 -13.0508,-6.56546 -13.0508,-16.25575 0,-19.12813 16.40413,-22.60021 31.93217,-22.60021 l 0,4.86092 m 21.66073,54.7014 c -1.41988,1.32566 -3.47419,1.42039 -5.07534,0.5366 -7.12957,-6.18665 -8.39842,-9.05904 -12.32575,-14.96161 -11.782,12.5627 -20.11997,16.31889 -35.40636,16.31889 -18.06572,0 -32.14365,-11.64733 -32.14365,-34.97352 0,-18.21278 9.45583,-30.61767 22.89933,-36.67796 11.66114,-5.36614 27.94444,-6.31307 40.39104,-7.79648 l 0,-2.90401 c 0,-5.33438 0.39275,-11.64727 -2.59807,-16.25572 -2.62831,-4.13498 -7.64315,-5.83942 -12.05387,-5.83942 -8.18694,0 -15.4978,4.38741 -17.28023,13.47801 -0.36245,2.02022 -1.78242,4.00868 -3.71584,4.1034 l -20.84506,-2.3358 c -1.75221,-0.41032 -3.68563,-1.89391 -3.20229,-4.70299 4.80344,-26.38802 27.61217,-34.34238 48.03423,-34.34238 10.45272,0 24.10775,2.90401 32.35512,11.17397 10.45272,10.19524 9.45579,23.79956 9.45579,38.60348 l 0,34.97343 c 0,10.51102 4.16902,15.11939 8.09634,20.80105 1.3897,2.02014 1.69175,4.45058 -0.0601,5.96571 -4.3805,3.81931 -12.17471,10.92134 -16.46457,14.89846 l -0.0605,-0.0631"
       id="path30"
       style="fill:#000000;fill-rule:evenodd;stroke:none" />
    <path
       style="fill:none;fill-opacity:1;fill-rule:evenodd;stroke:#000000;stroke-width:1.9570384px;stroke-linecap:butt;stroke-linejoin:miter;stroke-opacity:1"
       d="m 892.94361,76.640668 c -2.05501,0.02204 -4.11733,0.1 -6.18714,0.233397 l -749.56228,0 C 76.104317,75.538769 16.943641,126.42906 17.654001,210.47673 l 0,191.39531 0,544.32855 C 22.237427,1032.1047 76.8779,1063.6241 132.15212,1074.6664 l 751.84861,0 c 70.8599,0.8214 126.08487,-49.8449 131.68917,-122.03501 l 0,-548.76887 -1.1297,-224.04273 C 1012.5103,127.91147 956.6489,75.938071 892.94361,76.640668 Z"
       id="path4339"
       inkscape:connector-curvature="0" />
  </g>
</svg>
